# xmcd
#
# Track frame offsets:
#	150
#	11758
#	22431
#	36132
#	51449
#	62959
#	74238
#	92650
#	100582
#	115542
#	123872
#	131853
#	140361
#
# Disc length: 2031 seconds
#
# Revision: 0
# Processed by: cddbd v1.5.2PL0 Copyright (c) Steve Scherf et al.
# Submitted via: dBpowerAMP V4.0
#
DISCID=c107ed0d
DTITLE=Black Coffey Cowboys - Hot Like Fire
DYEAR=2007
DGENRE=Rockibilly
TTITLE0=No More
TTITLE1=Drinkin My Blues Away
TTITLE2=No POint
TTITLE3=Hot Like Fire
TTITLE4=Hip Shakin' Mama
TTITLE5=She's Live
TTITLE6=Long Gone
TTITLE7=Get Down Tonight
TTITLE8=Love Bandit
TTITLE9=Hard Headed Woman
TTITLE10=Black and Blue
TTITLE11=Magic
TTITLE12=Hush
EXTD=
EXTT0=
EXTT1=
EXTT2=
EXTT3=
EXTT4=
EXTT5=
EXTT6=
EXTT7=
EXTT8=
EXTT9=
EXTT10=
EXTT11=
EXTT12=
PLAYORDER=
